# xmcd
#
# Track frame offsets:
#	150
#	16511
#	32185
#	46751
#	62791
#	81841
#	97906
#	113556
#	127656
#	144616
#	164276
#	177142
#
# Disc length: 2601 seconds
# Revision: 1
# Processed by: cddbd v1.5.2PL0 Copyright (c) Steve Scherf et al.
# Submitted via: dBpowerAMP V12.0
#
DISCID=870a270c
DTITLE=Marcia Ball - The Tattooed Lady and the Alligator Man
DYEAR=2014
DGENRE=Blues
TTITLE0=The Tattooed Lady and the Alligator Man
TTITLE1=Clean My House
TTITLE2=Just Keep Holding On
TTITLE3=Like There's No Tomorrow
TTITLE4=He's the One
TTITLE5=The Squeeze Is On
TTITLE6=Hot Springs
TTITLE7=Human Kindness
TTITLE8=Can't Blame Nobody But Myself
TTITLE9=Lazy Blues
TTITLE10=Get You a Woman
TTITLE11=The Last to Know
EXTD=
EXTT0=
EXTT1=
EXTT2=
EXTT3=
EXTT4=
EXTT5=
EXTT6=
EXTT7=
EXTT8=
EXTT9=
EXTT10=
EXTT11=
PLAYORDER=
